PathFileType	4	(X/Y/Z)	/Volumes/GoogleDrive/My Drive/Research/Stanford/Projects/Digital Athlete Project/Sprinting/Sprint Simulation/sprinter/subjects/JA1/experimental_data/TRC/run0350cms.trc
DataRate	CameraRate	NumFrames	NumMarkers	Units	OrigDataRate	OrigDataStartFrame	OrigNumFrames
250.000000	250.000000	5	53	mm	250.000000	419	836
Frame#	Time	C7			RSH			LSH			MAN			T7			LARM			LELB			LFOREARM			LWR			RARM			RELB			RFOREARM			RWR			RASI			LASI			SACR			P1			P2			P3			LTHLP			LTHLD			LTHAP			LTHAD			LLEPI			LPAT			LTIAP			LTIAD			LTILAT			LLMAL			LHEEL			LMFS			LMFL			LP1MT			LTOE			LP5MT			RTHLP			RTHLD			RTHAP			RTHAD			RLEPI			RPAT			RTIAP			RTIAD			RTILAT			RLMAL			RHEEL			RMFS			RMFL			RP1MT			RTOE			RP5MT			x52			x53			
		X1	Y1	Z1	X2	Y2	Z2	X3	Y3	Z3	X4	Y4	Z4	X5	Y5	Z5	X6	Y6	Z6	X7	Y7	Z7	X8	Y8	Z8	X9	Y9	Z9	X10	Y10	Z10	X11	Y11	Z11	X12	Y12	Z12	X13	Y13	Z13	X14	Y14	Z14	X15	Y15	Z15	X16	Y16	Z16	X17	Y17	Z17	X18	Y18	Z18	X19	Y19	Z19	X20	Y20	Z20	X21	Y21	Z21	X22	Y22	Z22	X23	Y23	Z23	X24	Y24	Z24	X25	Y25	Z25	X26	Y26	Z26	X27	Y27	Z27	X28	Y28	Z28	X29	Y29	Z29	X30	Y30	Z30	X31	Y31	Z31	X32	Y32	Z32	X33	Y33	Z33	X34	Y34	Z34	X35	Y35	Z35	X36	Y36	Z36	X37	Y37	Z37	X38	Y38	Z38	X39	Y39	Z39	X40	Y40	Z40	X41	Y41	Z41	X42	Y42	Z42	X43	Y43	Z43	X44	Y44	Z44	X45	Y45	Z45	X46	Y46	Z46	X47	Y47	Z47	X48	Y48	Z48	X49	Y49	Z49	X50	Y50	Z50	X51	Y51	Z51	X52	Y52	Z52	X53	Y53	Z53	
419	1.676000	502.813416	1520.955200	234.769592	524.988770	1504.631958	404.706543	526.187378	1506.394653	76.241707	636.685913	1419.052734	251.060181	427.020691	1335.836426	233.436142	473.632874	1326.619629	-21.743923	435.431061	1198.022827	-57.268059	556.937561	1132.230591	-11.590661	663.141174	1072.588867	29.013399	417.375214	1378.526245	502.019867	321.521820	1289.518188	550.632080	396.052307	1165.575806	555.532104	454.982941	1046.270264	549.750977	606.948608	1058.421631	338.010040	600.310059	1036.289673	122.551559	420.412750	1085.766724	240.916702	412.400757	1055.290771	188.584427	405.066498	1057.638550	296.895935	385.324402	998.538025	241.325058	502.753815	725.025085	70.296112	505.664185	612.068970	89.912323	630.484497	719.582092	156.616394	616.265625	603.748962	166.396591	496.207489	507.666290	118.094460	567.879639	453.735107	184.731659	338.783295	450.127167	191.008392	199.173874	450.364716	188.983429	269.400879	490.336151	115.419876	54.350750	476.784790	133.632950	33.292782	540.786926	188.692780	29.884357	369.932404	178.940231	3.325623	410.359924	122.113045	-30.150934	320.934326	213.598709	-25.978367	288.305450	168.452530	-49.368172	359.417206	95.469093	589.702148	788.419617	436.325348	645.030212	689.812866	421.050873	717.833191	812.399841	364.667175	749.980774	719.254395	356.250122	693.785156	547.419189	393.599182	781.176147	575.045288	343.827759	718.131042	334.877136	297.342804	696.691223	212.838501	276.769989	676.548645	320.910706	379.605164	661.471924	88.255554	325.617828	593.981262	54.624485	279.301270	767.281433	89.500938	274.482025	728.930115	54.922333	329.227173	826.666687	41.624065	226.142288	859.761963	51.130466	260.631287	798.486145	26.492668	350.684570	717.119141	1042.275879	49.650417	487.939026	979.550293	546.518005
420	1.680000	516.897766	1516.857300	235.549545	539.982910	1500.029541	405.421936	539.982544	1502.210327	76.848198	651.158264	1414.291992	250.962433	440.610413	1331.820068	233.935760	486.421661	1322.241455	-21.012497	446.896790	1194.266479	-56.661633	566.978516	1124.465332	-12.841129	671.409851	1060.759888	26.140287	434.388336	1372.088989	504.160034	339.881165	1282.129517	553.370911	416.103638	1159.298218	557.189575	476.612244	1041.007080	550.862000	619.829895	1053.812378	337.378784	613.747498	1032.387695	123.298126	433.233429	1080.819824	240.786438	425.183136	1050.315918	188.682587	417.877625	1053.009155	297.101166	398.104034	994.187561	241.723694	520.092346	719.643433	70.071564	525.105225	606.807251	89.783234	647.692383	716.633240	156.357788	635.823792	600.548584	165.993378	518.120178	503.249603	117.482735	590.333435	449.872620	184.070862	360.885559	448.546417	191.127045	221.245819	450.731110	188.434433	292.191010	489.216949	114.578430	76.874100	479.262543	132.886337	56.057262	543.680969	187.693054	51.412632	372.872040	178.784027	25.660425	413.200531	121.380318	-9.035405	324.423126	213.175369	-4.791505	291.430542	168.199188	-27.307602	362.456879	94.759567	602.523315	783.580872	436.689301	657.837158	684.907227	420.813232	731.225159	807.467468	367.114410	761.408508	713.873047	356.894257	709.314758	543.488586	392.889587	796.242371	569.944336	342.138489	725.297546	332.063904	293.458771	698.888733	210.703339	273.012756	686.601624	318.165009	376.126740	660.558472	88.534286	323.334137	594.115112	54.886875	277.205902	766.824890	88.927330	272.289978	728.673950	55.349556	327.818542	827.179749	41.100945	225.700912	861.327515	49.394852	260.300873	798.743530	26.665344	350.451172	724.487122	1028.381592	45.952599	510.450806	974.854553	547.323425
421	1.684000	531.024292	1512.911133	236.524445	555.098999	1495.540039	406.456970	553.996948	1498.006714	76.955086	665.614441	1409.533447	250.847992	454.388336	1327.798340	234.159775	499.338196	1317.776855	-20.445139	458.251678	1190.486816	-56.052025	576.859436	1116.832031	-14.099197	679.387512	1049.104004	23.166706	451.441071	1365.550293	506.264343	358.371399	1274.713501	556.116577	436.318054	1153.003296	558.930664	498.482849	1035.795044	552.050232	632.730896	1049.720703	337.454712	626.894958	1028.413208	123.532661	445.851044	1076.315430	241.064651	437.952667	1044.922363	188.668915	430.508148	1048.420288	297.079742	410.760254	989.448181	242.179321	537.462158	714.392578	69.808632	544.636597	601.730713	89.611252	664.972900	713.688049	155.934402	655.312195	597.517029	165.502838	540.074463	499.098999	117.049416	612.578186	446.311066	183.648651	383.129364	446.614166	190.759262	243.506866	451.021362	188.212891	315.064667	488.005646	114.038803	99.697762	481.351074	132.168030	78.983810	546.253906	186.511871	73.326408	375.426117	178.364151	48.354683	415.758514	120.473511	12.508346	327.681244	213.035004	16.751270	294.273773	168.228287	-4.799069	365.064606	93.961884	615.301697	778.678101	436.931580	669.862122	679.785583	420.143280	744.341248	802.085632	369.394379	772.490051	708.395020	357.075745	724.556458	539.620483	392.083344	810.751099	564.927490	340.622955	731.917542	329.715668	290.133331	702.249756	209.080154	269.873199	696.473511	315.421844	373.390167	662.640503	89.384926	321.123108	595.498718	55.685116	274.749786	768.530396	87.947922	271.354828	729.214233	55.247066	326.721527	828.204468	41.134933	225.849319	865.691650	48.133148	261.271912	798.701172	26.269127	350.709137	731.497375	1014.681213	42.107105	533.247620	970.248108	548.202454
422	1.688000	545.161377	1509.101318	237.120880	570.113708	1491.182007	407.363800	567.819580	1493.825928	77.007713	680.090515	1404.819336	251.029297	467.985138	1324.072998	234.867065	512.229492	1313.277954	-20.008795	469.676788	1186.705566	-55.723076	586.475403	1109.048950	-15.313977	687.050415	1037.514404	20.205872	468.507477	1358.885498	508.138367	377.009796	1267.138428	558.725281	456.695129	1146.645630	560.615845	520.474670	1030.536133	553.017334	645.467163	1045.613525	337.625000	639.872009	1024.387573	123.447083	458.411194	1071.524292	241.391190	449.708405	1041.530396	189.544052	442.921753	1043.995117	297.494995	423.229340	984.591980	242.581329	554.843872	709.198181	69.536079	564.298096	596.691406	89.376350	683.632324	711.661377	153.386612	674.943909	594.740051	165.080963	562.115723	495.206543	116.422203	634.943176	443.158539	183.314331	405.562805	444.974548	190.371674	266.019165	451.060120	187.516998	338.055328	486.692932	113.328308	122.710724	483.159271	131.318924	102.059395	548.509216	185.346161	95.601875	377.679443	178.198822	71.003716	417.701538	120.141365	34.259888	330.394653	212.697891	38.615715	296.677948	168.137650	17.770920	367.292236	93.444855	628.154053	773.791077	436.420959	682.488159	675.109070	419.435364	757.434692	796.070740	371.644928	784.321045	703.120056	357.588623	739.220459	535.709412	390.694458	824.479370	560.594299	339.326202	738.683228	327.597687	287.937439	706.991394	207.744308	267.605621	706.056824	312.894470	371.368500	666.257385	90.270569	318.953766	597.141907	56.857964	272.246277	770.560852	87.099747	269.965881	730.319519	55.617756	325.324554	829.302551	40.829044	226.061981	868.536072	46.593708	262.010284	798.989014	26.072823	350.824615	738.167664	1001.156982	38.258839	556.142456	965.603516	548.767944
423	1.692000	559.471802	1505.503662	237.820465	585.206360	1486.965210	408.332794	581.643738	1489.673828	77.249954	694.619629	1400.150269	250.992950	481.413269	1320.637329	235.808670	525.080383	1308.814209	-19.398314	481.124878	1182.907959	-55.482117	595.918701	1101.579834	-16.538069	694.404297	1026.259888	17.243637	485.649475	1352.174561	510.082245	395.848480	1259.549805	561.513000	477.319855	1140.194702	562.147766	542.673279	1025.320679	554.027100	658.026001	1041.850220	337.951569	652.530945	1020.231873	122.882179	470.679047	1066.864136	242.025665	462.022491	1036.676880	190.065231	455.188507	1039.537598	298.138977	435.296112	980.064819	243.331558	572.208435	704.293335	69.292610	583.928894	592.109924	89.298820	700.344482	708.852600	153.913712	694.810242	592.156799	164.435043	584.330383	491.777588	115.646072	657.557434	440.370117	182.911514	428.317627	443.338348	190.234024	288.901031	451.278778	187.929260	361.297455	485.392456	112.780373	145.939392	484.630157	130.636627	125.321594	550.404114	184.340622	118.019958	379.602844	177.986389	93.796974	419.227844	120.054398	56.258396	332.664673	212.307816	60.835182	298.714935	168.098572	40.770168	368.847626	92.882957	641.445740	769.585938	436.211548	696.082031	671.088501	419.355408	770.592590	789.831482	373.326965	797.840332	698.683899	358.447845	753.613281	531.903564	389.883453	837.814575	556.770447	338.368866	747.445496	325.600647	286.916687	713.129822	206.683136	266.142273	713.908813	311.499695	370.000305	669.187012	90.582176	316.757782	598.276855	58.194790	269.553253	771.995667	86.490959	267.891571	731.282043	56.394806	323.346008	829.784851	40.694393	225.530640	870.296448	45.321087	262.078735	799.021545	26.297020	350.587524	744.459656	987.978577	34.413193	579.221191	961.079041	549.485779
